<svg xmlns="http://www.w3.org/2000/svg" width="60" height="60" viewBox="0 0 60 60"><path fill="#b4fff4" d="M42.6 43.5l-4.1-6.8a29.6 29.6 0 0 0 1.4-8.4 4.9 4.9 0 0 0-.1-1.2c-.4-7.6-3.3-10.3-5.5-12.5a10.8 10.8 0 0 1-2.4-3.2 1.9 1.9 0 0 0 .9-.4 1.1 1.1 0 0 0 .6-1.1v-.3c-.2-.2-.7-.3-1.6-.3a8.1 8.1 0 0 1 .1-1.5c0-.2 0-.2.4-.3a.6.6 0 0 0 .5-.3 1.1 1.1 0 0 0-.2-.8h-.1a10.6 10.6 0 0 1-.9-3c0-.8-.1-1-.3-1a.2.2 0 0 0-.3 0c-.1 0-.3.1-.3 1a11.6 11.6 0 0 1-.9 3h-.1a1.1 1.1 0 0 0-.2.6v.2a.6.6 0 0 0 .5.3c.4.1.4.1.4.3a3.4 3.4 0 0 1 .1.9v.6c-.9 0-1.4.1-1.6.3v.3a1.1 1.1 0 0 0 .6 1.1 1.9 1.9 0 0 0 .9.4 13.1 13.1 0 0 1-2.5 3.3c-2.2 2.1-5.1 4.9-5.6 12.4v1.2a29.6 29.6 0 0 0 1.4 8.4l-4.1 6.8L16.9 58h2.8l2.6-9.2 4.4-3.7h.7a8.3 8.3 0 0 1 .2 1.3c.1.2.2.7 2.2.9V58h2.4V47.5c2.1-.1 2.2-.7 2.3-.9a8.3 8.3 0 0 1 .2-1.3h.6l4.4 3.7 2.6 9h2.8z"/></svg>